<mxfile host="Electron" agent="Mozilla/5.0 (Windows NT 10.0; Win64; x64) AppleWebKit/537.36 (KHTML, like Gecko) draw.io/24.7.5 Chrome/126.0.6478.183 Electron/31.3.0 Safari/537.36" version="24.7.5">
  <diagram name="第 1 页" id="d2Tg09j5GOFFWONbIQ3w">
    <mxGraphModel dx="1221" dy="717" grid="1" gridSize="10" guides="1" tooltips="1" connect="1" arrows="1" fold="1" page="1" pageScale="1" pageWidth="827" pageHeight="1169" math="0" shadow="0">
      <root>
        <mxCell id="0" />
        <mxCell id="1" parent="0" />
        <mxCell id="uhnZY3fbSVC9gmOvuZzV-5" style="edgeStyle=orthogonalEdgeStyle;rounded=0;orthogonalLoop=1;jettySize=auto;html=1;entryX=0;entryY=0.5;entryDx=0;entryDy=0;" edge="1" parent="1" source="uhnZY3fbSVC9gmOvuZzV-1" target="uhnZY3fbSVC9gmOvuZzV-2">
          <mxGeometry relative="1" as="geometry" />
        </mxCell>
        <mxCell id="uhnZY3fbSVC9gmOvuZzV-1" value="dynamic buffer 1" style="rounded=0;whiteSpace=wrap;html=1;" vertex="1" parent="1">
          <mxGeometry x="90" y="230" width="120" height="60" as="geometry" />
        </mxCell>
        <mxCell id="uhnZY3fbSVC9gmOvuZzV-2" value="terrain chunk buffers instance&lt;div&gt;&lt;br&gt;&lt;/div&gt;&lt;div&gt;dynamic buffer 1, 2 ,3, 4 offset and size&lt;br&gt;&lt;br&gt;&lt;/div&gt;&lt;div&gt;以及写数据&lt;br&gt;和回读数据&lt;/div&gt;" style="rounded=0;whiteSpace=wrap;html=1;" vertex="1" parent="1">
          <mxGeometry x="310" y="190" width="320" height="280" as="geometry" />
        </mxCell>
        <mxCell id="uhnZY3fbSVC9gmOvuZzV-6" style="edgeStyle=orthogonalEdgeStyle;rounded=0;orthogonalLoop=1;jettySize=auto;html=1;entryX=0;entryY=0.5;entryDx=0;entryDy=0;" edge="1" parent="1" source="uhnZY3fbSVC9gmOvuZzV-3" target="uhnZY3fbSVC9gmOvuZzV-2">
          <mxGeometry relative="1" as="geometry" />
        </mxCell>
        <mxCell id="uhnZY3fbSVC9gmOvuZzV-3" value="dynamic buffer 2" style="rounded=0;whiteSpace=wrap;html=1;" vertex="1" parent="1">
          <mxGeometry x="90" y="300" width="120" height="60" as="geometry" />
        </mxCell>
        <mxCell id="uhnZY3fbSVC9gmOvuZzV-7" style="edgeStyle=orthogonalEdgeStyle;rounded=0;orthogonalLoop=1;jettySize=auto;html=1;" edge="1" parent="1" source="uhnZY3fbSVC9gmOvuZzV-4" target="uhnZY3fbSVC9gmOvuZzV-2">
          <mxGeometry relative="1" as="geometry" />
        </mxCell>
        <mxCell id="uhnZY3fbSVC9gmOvuZzV-4" value="dynamic buffer 3" style="rounded=0;whiteSpace=wrap;html=1;" vertex="1" parent="1">
          <mxGeometry x="90" y="370" width="120" height="60" as="geometry" />
        </mxCell>
      </root>
    </mxGraphModel>
  </diagram>
</mxfile>
